<svg width="18" height="18" viewBox="0 0 18 18" fill="none" xmlns="http://www.w3.org/2000/svg">
<path fill-rule="evenodd" clip-rule="evenodd" d="M7.40751 11.4048C4.52451 11.4048 2.06226 11.8405 2.06226 13.5865C2.06226 15.3325 4.50951 15.784 7.40751 15.784C10.2913 15.784 12.7528 15.3475 12.7528 13.6023C12.7528 11.857 10.3063 11.4048 7.40751 11.4048Z" stroke="black" stroke-width="1.5" stroke-linecap="round" stroke-linejoin="round"/>
<path fill-rule="evenodd" clip-rule="evenodd" d="M7.40745 8.9145C9.2997 8.9145 10.8335 7.38075 10.8335 5.4885C10.8335 3.59625 9.2997 2.0625 7.40745 2.0625C5.51595 2.0625 3.9822 3.59625 3.9822 5.4885C3.97545 7.374 5.49795 8.90775 7.3842 8.9145H7.40745Z" stroke="black" stroke-width="1.5" stroke-linecap="round" stroke-linejoin="round"/>
<path d="M14.4028 6.50195V9.50945" stroke="black" stroke-width="1.5" stroke-linecap="round" stroke-linejoin="round"/>
<path d="M15.9374 8.00562H12.8699" stroke="black" stroke-width="1.5" stroke-linecap="round" stroke-linejoin="round"/>
</svg>
