<svg width="18" height="18" viewBox="0 0 18 18" fill="none" xmlns="http://www.w3.org/2000/svg">
<path d="M13.416 8.17254C14.4623 8.02554 15.2678 7.12854 15.27 6.04179C15.27 4.97079 14.4893 4.08279 13.4655 3.91479" stroke="#DD2A1B" stroke-width="1.5" stroke-linecap="round" stroke-linejoin="round"/>
<path d="M14.7969 10.6877C15.8101 10.8392 16.5174 11.194 16.5174 11.9252C16.5174 12.4285 16.1844 12.7555 15.6459 12.961" stroke="#DD2A1B" stroke-width="1.5" stroke-linecap="round" stroke-linejoin="round"/>
<path fill-rule="evenodd" clip-rule="evenodd" d="M8.91554 10.998C6.50504 10.998 4.44629 11.3633 4.44629 12.822C4.44629 14.28 6.49229 14.6558 8.91554 14.6558C11.326 14.6558 13.384 14.2943 13.384 12.8348C13.384 11.3753 11.3388 10.998 8.91554 10.998Z" stroke="#DD2A1B" stroke-width="1.5" stroke-linecap="round" stroke-linejoin="round"/>
<path fill-rule="evenodd" clip-rule="evenodd" d="M8.91505 8.916C10.4968 8.916 11.7793 7.63425 11.7793 6.05175C11.7793 4.47 10.4968 3.1875 8.91505 3.1875C7.3333 3.1875 6.0508 4.47 6.0508 6.05175C6.0448 7.62825 7.31755 8.91075 8.89405 8.916H8.91505Z" stroke="#DD2A1B" stroke-width="1.5" stroke-linecap="round" stroke-linejoin="round"/>
<path d="M4.41357 8.17254C3.36657 8.02554 2.56182 7.12854 2.55957 6.04179C2.55957 4.97079 3.34032 4.08279 4.36407 3.91479" stroke="#DD2A1B" stroke-width="1.5" stroke-linecap="round" stroke-linejoin="round"/>
<path d="M3.033 10.6877C2.01975 10.8392 1.3125 11.194 1.3125 11.9252C1.3125 12.4285 1.6455 12.7555 2.184 12.961" stroke="#DD2A1B" stroke-width="1.5" stroke-linecap="round" stroke-linejoin="round"/>
</svg>
